<svg width="53" height="27" viewBox="0 0 53 27" fill="none" xmlns="http://www.w3.org/2000/svg">
<path d="M0.762821 14.3237L9.96692 25.5141C10.2626 25.8722 10.6323 26.0513 11.0019 26.0513C11.3716 26.0513 11.7412 25.8722 12.0369 25.5141C12.6284 24.7979 12.6284 23.6789 12.0369 22.9627L5.34638 14.8161H26.9335C27.7468 14.8161 28.4121 14.0104 28.4121 13.0256C28.4121 12.0409 27.7468 11.2352 26.9335 11.2352H5.34638L12.0369 3.08856C12.6284 2.37237 12.6284 1.25333 12.0369 0.53714C11.4455 -0.179047 10.5214 -0.179047 9.92996 0.53714L0.725843 11.7275C0.171379 12.4885 0.171392 13.6523 0.762821 14.3237Z" fill="#5C5C5C"/>
<rect width="50" height="4.00171" rx="2.00085" transform="matrix(-1 0 0 1 53 11.0449)" fill="#5C5C5C"/>
</svg>
